<?xml version="1.0" encoding="utf-8"?>
<!-- Generator: Adobe Illustrator 19.2.1, SVG Export Plug-In . SVG Version: 6.00 Build 0)  -->
<svg version="1.1" id="Layer_1" xmlns="http://www.w3.org/2000/svg" xmlns:xlink="http://www.w3.org/1999/xlink" x="0px" y="0px" width="24px" height="30px"
	 viewBox="0 0 24 30" style="enable-background:new 0 0 24 30;" xml:space="preserve">
<g>
	<g>
		<path style="fill:#333333;" d="M21.025,18.278C22.317,16.424,23,14.254,23,12c0-6.065-4.935-11-11-11S1,5.935,1,12
			c0,2.254,0.683,4.424,1.975,6.278l6.567,9.433C10.105,28.518,11.024,29,12,29s1.895-0.482,2.458-1.289L21.025,18.278z"/>
		<path style="fill:#FFFFFF;" d="M24,12c0-6.627-5.373-12-12-12S0,5.373,0,12c0,2.548,0.8,4.907,2.154,6.85H2.146l6.57,9.434h0.006
			C9.445,29.319,10.641,30,12,30s2.555-0.681,3.278-1.717h0.006l6.57-9.434h-0.009C23.2,16.907,24,14.548,24,12z M12,29
			c-0.976,0-1.895-0.482-2.458-1.289l-6.567-9.433C1.683,16.424,1,14.254,1,12C1,5.935,5.935,1,12,1s11,4.935,11,11
			c0,2.254-0.683,4.424-1.975,6.278l-6.567,9.433C13.895,28.518,12.976,29,12,29z"/>
	</g>
	<circle style="fill:#FFFFFF;" cx="12" cy="12" r="6.5"/>
</g>
</svg>
